<mxfile host="app.diagrams.net" modified="2024-06-08T10:24:59.359Z" agent="Mozilla/5.0 (Windows NT 10.0; Win64; x64) AppleWebKit/537.36 (KHTML, like Gecko) Chrome/125.0.0.0 Safari/537.36 Edg/125.0.0.0" etag="u68WoyQgzD7UUOlacYMH" version="24.5.2" type="device">
  <diagram name="Page-1" id="ylFEibHIw8sPaIhy039d">
    <mxGraphModel dx="1609" dy="1106" grid="0" gridSize="10" guides="1" tooltips="1" connect="1" arrows="1" fold="1" page="0" pageScale="1" pageWidth="850" pageHeight="1100" background="none" math="0" shadow="0">
      <root>
        <mxCell id="0" />
        <mxCell id="1" parent="0" />
        <mxCell id="yjkwso5ld1Q7_780Q09X-4" value="" style="swimlane;startSize=0;" parent="1" vertex="1">
          <mxGeometry x="200" y="150" width="150" height="130" as="geometry" />
        </mxCell>
        <mxCell id="yjkwso5ld1Q7_780Q09X-1" value="" style="shape=image;verticalLabelPosition=bottom;labelBackgroundColor=#ffffff;verticalAlign=top;aspect=fixed;imageAspect=0;image=data:image/svg+xml,PHN2ZyB4bWxuczpjYz0iaHR0cDovL2NyZWF0aXZlY29tbW9ucy5vcmcvbnMjIiB4bWxuczpkYz0iaHR0cDovL3B1cmwub3JnL2RjL2VsZW1lbnRzLzEuMS8iIHhtbG5zOmlua3NjYXBlPSJodHRwOi8vd3d3Lmlua3NjYXBlLm9yZy9uYW1lc3BhY2VzL2lua3NjYXBlIiB4bWxuczpyZGY9Imh0dHA6Ly93d3cudzMub3JnLzE5OTkvMDIvMjItcmRmLXN5bnRheC1ucyMiIHhtbG5zOnNvZGlwb2RpPSJodHRwOi8vc29kaXBvZGkuc291cmNlZm9yZ2UubmV0L0RURC9zb2RpcG9kaS0wLmR0ZCIgeG1sbnM6c3ZnPSJodHRwOi8vd3d3LnczLm9yZy8yMDAwL3N2ZyIgeG1sbnM9Imh0dHA6Ly93d3cudzMub3JnLzIwMDAvc3ZnIiB4bWxuczp4bGluaz0iaHR0cDovL3d3dy53My5vcmcvMTk5OS94bGluayIgdmVyc2lvbj0iMS4xIiBpZD0ic3ZnNTg1MzciIGlua3NjYXBlOnZlcnNpb249IjAuOTIuMyAoMjQwNTU0NiwgMjAxOC0wMy0xMSkiIHNvZGlwb2RpOmRvY25hbWU9ImF6dXJlX2Z1bmN0aW9ucy5zdmciIHg9IjBweCIgeT0iMHB4IiB2aWV3Qm94PSIwIDAgNTcuMzEgNTIuODEiIHN0eWxlPSJlbmFibGUtYmFja2dyb3VuZDpuZXcgMCAwIDU3LjMxIDUyLjgxOyIgeG1sOnNwYWNlPSJwcmVzZXJ2ZSI+JiN4YTs8c29kaXBvZGk6bmFtZWR2aWV3IGJvcmRlcmNvbG9yPSIjNjY2NjY2IiBib3JkZXJvcGFjaXR5PSIxIiBmaXQtbWFyZ2luLWJvdHRvbT0iMCIgZml0LW1hcmdpbi1sZWZ0PSIwIiBmaXQtbWFyZ2luLXJpZ2h0PSIwIiBmaXQtbWFyZ2luLXRvcD0iMCIgZ3JpZHRvbGVyYW5jZT0iMTAiIGd1aWRldG9sZXJhbmNlPSIxMCIgaWQ9Im5hbWVkdmlldzU4NTM5IiBpbmtzY2FwZTpjdXJyZW50LWxheWVyPSJzdmc1ODUzNyIgaW5rc2NhcGU6Y3g9IjM5LjQ3MTQ0MiIgaW5rc2NhcGU6Y3k9IjI2LjM0NTIxNyIgaW5rc2NhcGU6cGFnZW9wYWNpdHk9IjAiIGlua3NjYXBlOnBhZ2VzaGFkb3c9IjIiIGlua3NjYXBlOndpbmRvdy1oZWlnaHQ9IjEwMTciIGlua3NjYXBlOndpbmRvdy1tYXhpbWl6ZWQ9IjEiIGlua3NjYXBlOndpbmRvdy13aWR0aD0iMTkyMCIgaW5rc2NhcGU6d2luZG93LXg9Ii04IiBpbmtzY2FwZTp3aW5kb3cteT0iLTgiIGlua3NjYXBlOnpvb209IjYuMzkxNjgyOCIgb2JqZWN0dG9sZXJhbmNlPSIxMCIgcGFnZWNvbG9yPSIjZmZmZmZmIiBzaG93Z3JpZD0iZmFsc2UiPiYjeGE7CTwvc29kaXBvZGk6bmFtZWR2aWV3PiYjeGE7PGcgaWQ9Imc1ODUzNSIgdHJhbnNmb3JtPSJ0cmFuc2xhdGUoLTkuNTYzNDE2MSwtOS41Njc2MDUyKSI+JiN4YTsJPHRpdGxlIGlkPSJ0aXRsZTU4NTEwIj5QYWdlLTE8L3RpdGxlPiYjeGE7CTxnIGlkPSJncm91cDQ0MzYtMSIgdHJhbnNmb3JtPSJ0cmFuc2xhdGUoOS4zOTU0MywtOS41NjI1KSI+JiN4YTsJCTx0aXRsZSBpZD0idGl0bGU1ODUxMiI+QXp1cmUgRnVuY3Rpb25zLjQzNzwvdGl0bGU+JiN4YTsJCTxnIGlkPSJzaGFwZTQ0MzctMiIgdHJhbnNmb3JtPSJ0cmFuc2xhdGUoMzkuMjA1OSwtMTAuMjkzOCkiPiYjeGE7CQkJPHRpdGxlIGlkPSJ0aXRsZTU4NTE0Ij5TaGVldC40NDM3PC90aXRsZT4mI3hhOwkJCTxwYXRoIGlkPSJwYXRoNTg1MTYiIGlua3NjYXBlOmNvbm5lY3Rvci1jdXJ2YXR1cmU9IjAiIHN0eWxlPSJmaWxsOiMzOTk5QzY7IiBkPSJNMTcuOSw1Ni4xOGMwLjU0LTAuNTMsMC40NS0xLjUyLDAtMi4wNiAgICAgbC0yLjc3LTIuNzdsLTEyLjM2LTEyYy0wLjUzLTAuNTMtMS4zNC0wLjUzLTEuOTYsMGMtMC41NCwwLjU0LTAuNzIsMS41MywwLDIuMDZsMTIuOTcsMTIuNzFjMC41NCwwLjU0LDAuNTQsMS41MywwLDIuMDYgICAgIEwwLjU0LDY5LjM0QzAsNjkuODgsMCw3MC44NiwwLjU0LDcxLjRjMC41MywwLjU0LDEuNTIsMC40NSwxLjk3LDBsMTIuMjYtMTIuMTdjMCwwLDAsMCwwLjA5LTAuMDlMMTcuOSw1Ni4xOHoiLz4mI3hhOwkJPC9nPiYjeGE7CQk8ZyBpZD0ic2hhcGU0NDM4LTQiIHRyYW5zZm9ybT0idHJhbnNsYXRlKDAsLTEwLjI5MzgpIj4mI3hhOwkJCTx0aXRsZSBpZD0idGl0bGU1ODUxOSI+U2hlZXQuNDQzODwvdGl0bGU+JiN4YTsJCQk8cGF0aCBpZD0icGF0aDU4NTIxIiBpbmtzY2FwZTpjb25uZWN0b3ItY3VydmF0dXJlPSIwIiBzdHlsZT0iZmlsbDojMzk5OUM2OyIgZD0iTTAuNTQsNTYuMThjLTAuNTQtMC41My0wLjQ1LTEuNTIsMC0yLjA2ICAgICBsMi43Ny0yLjc3bDEyLjM1LTEyYzAuNTQtMC41MywxLjM1LTAuNTMsMS45NywwYzAuNTQsMC41NCwwLjcyLDEuNTMsMCwyLjA2TDQuOTIsNTQuMTJjLTAuNTMsMC41NC0wLjUzLDEuNTMsMCwyLjA2TDE3LjksNjkuMzQgICAgIGMwLjU0LDAuNTQsMC41NCwxLjUyLDAsMi4wNmMtMC41MywwLjU0LTEuNTIsMC40NS0xLjk3LDBMMy40LDU5LjQxYzAsMCwwLDAtMC4wOS0wLjA5TDAuNTQsNTYuMTh6Ii8+JiN4YTsJCTwvZz4mI3hhOwkJPGcgaWQ9InNoYXBlNDQzOS02IiB0cmFuc2Zvcm09InRyYW5zbGF0ZSgxNS45MzMpIj4mI3hhOwkJCTx0aXRsZSBpZD0idGl0bGU1ODUyNCI+U2hlZXQuNDQzOTwvdGl0bGU+JiN4YTsJCQk8cGF0aCBpZD0icGF0aDU4NTI2IiBpbmtzY2FwZTpjb25uZWN0b3ItY3VydmF0dXJlPSIwIiBzdHlsZT0iZmlsbDojRkNEMTE2OyIgZD0iTTI2Ljg1LDE5LjEzSDkuNEwwLDQ1LjYybDExLjQ2LDAuMDlMMi41MSw3MS45NCAgICAgbDI0LjctMzVIMTUuMjJMMjYuODUsMTkuMTN6Ii8+JiN4YTsJCTwvZz4mI3hhOwkJPGcgaWQ9InNoYXBlNDQ0MC04IiB0cmFuc2Zvcm09InRyYW5zbGF0ZSgxOC40MzkzKSI+JiN4YTsJCQk8dGl0bGUgaWQ9InRpdGxlNTg1MjkiPlNoZWV0LjQ0NDA8L3RpdGxlPiYjeGE7CQkJPHBhdGggaWQ9InBhdGg1ODUzMSIgaW5rc2NhcGU6Y29ubmVjdG9yLWN1cnZhdHVyZT0iMCIgc3R5bGU9ImZpbGw6I0ZGOEMwMDtmaWxsLW9wYWNpdHk6MC4zOyIgZD0iTTEyLjcxLDM2Ljk0bDExLjY0LTE3LjgxICAgICBoLTkuMTNMNS41NSw0MS4xNGwxMS40NiwwLjA5TDAsNzEuOTRsMjQuNzEtMzVMMTIuNzEsMzYuOTR6Ii8+JiN4YTsJCTwvZz4mI3hhOwk8L2c+JiN4YTs8L2c+JiN4YTs8L3N2Zz4=;" parent="yjkwso5ld1Q7_780Q09X-4" vertex="1">
          <mxGeometry x="50" y="45" width="43.02" height="40" as="geometry" />
        </mxCell>
        <mxCell id="yjkwso5ld1Q7_780Q09X-6" value="HttpTriggerReader" style="text;html=1;align=center;verticalAlign=middle;resizable=0;points=[];autosize=1;strokeColor=none;fillColor=none;" parent="yjkwso5ld1Q7_780Q09X-4" vertex="1">
          <mxGeometry x="20" y="80" width="120" height="30" as="geometry" />
        </mxCell>
        <mxCell id="Y8M2NR25lFbjrLHhS5XQ-39" value="" style="aspect=fixed;sketch=0;html=1;dashed=0;whitespace=wrap;verticalLabelPosition=bottom;verticalAlign=top;fillColor=#2875E2;strokeColor=#ffffff;points=[[0.005,0.63,0],[0.1,0.2,0],[0.9,0.2,0],[0.5,0,0],[0.995,0.63,0],[0.72,0.99,0],[0.5,1,0],[0.28,0.99,0]];shape=mxgraph.kubernetes.icon2;prIcon=pod" vertex="1" parent="yjkwso5ld1Q7_780Q09X-4">
          <mxGeometry x="108.75" y="10" width="31.25" height="30" as="geometry" />
        </mxCell>
        <mxCell id="yjkwso5ld1Q7_780Q09X-7" value="readercontainer" style="text;html=1;align=center;verticalAlign=middle;resizable=0;points=[];autosize=1;strokeColor=none;fillColor=none;" parent="1" vertex="1">
          <mxGeometry x="130" y="120" width="110" height="30" as="geometry" />
        </mxCell>
        <mxCell id="Y8M2NR25lFbjrLHhS5XQ-2" value="" style="image;sketch=0;aspect=fixed;html=1;points=[];align=center;fontSize=12;image=img/lib/mscae/Docker.svg;" vertex="1" parent="1">
          <mxGeometry x="20" y="180" width="50" height="41" as="geometry" />
        </mxCell>
        <mxCell id="Y8M2NR25lFbjrLHhS5XQ-3" style="edgeStyle=orthogonalEdgeStyle;rounded=0;orthogonalLoop=1;jettySize=auto;html=1;entryX=-0.016;entryY=0.391;entryDx=0;entryDy=0;entryPerimeter=0;" edge="1" parent="1" source="Y8M2NR25lFbjrLHhS5XQ-2" target="yjkwso5ld1Q7_780Q09X-4">
          <mxGeometry relative="1" as="geometry" />
        </mxCell>
        <mxCell id="Y8M2NR25lFbjrLHhS5XQ-5" value="&lt;div style=&quot;color: rgb(204, 204, 204); background-color: rgb(31, 31, 31); font-family: Consolas, &amp;quot;Courier New&amp;quot;, monospace; font-size: 14px; line-height: 19px; white-space-collapse: preserve;&quot;&gt;&lt;span style=&quot;color: #ce9178;&quot;&gt;rahulawari683/reader-dockerhub-repo:latest&lt;/span&gt;&lt;/div&gt;" style="text;html=1;align=center;verticalAlign=middle;resizable=0;points=[];autosize=1;strokeColor=none;fillColor=none;" vertex="1" parent="1">
          <mxGeometry x="-145" y="218" width="350" height="30" as="geometry" />
        </mxCell>
        <mxCell id="Y8M2NR25lFbjrLHhS5XQ-7" value="" style="image;sketch=0;aspect=fixed;html=1;points=[];align=center;fontSize=12;image=img/lib/mscae/Functions.svg;" vertex="1" parent="1">
          <mxGeometry x="540" y="195.5" width="42.38" height="39" as="geometry" />
        </mxCell>
        <mxCell id="Y8M2NR25lFbjrLHhS5XQ-8" value="" style="swimlane;startSize=0;" vertex="1" parent="1">
          <mxGeometry x="470" y="150" width="181.19" height="130" as="geometry" />
        </mxCell>
        <mxCell id="Y8M2NR25lFbjrLHhS5XQ-9" value="HttpTriggerReverse" style="text;html=1;align=center;verticalAlign=middle;resizable=0;points=[];autosize=1;strokeColor=none;fillColor=none;" vertex="1" parent="Y8M2NR25lFbjrLHhS5XQ-8">
          <mxGeometry x="25.600000000000023" y="80" width="130" height="30" as="geometry" />
        </mxCell>
        <mxCell id="Y8M2NR25lFbjrLHhS5XQ-40" value="" style="aspect=fixed;sketch=0;html=1;dashed=0;whitespace=wrap;verticalLabelPosition=bottom;verticalAlign=top;fillColor=#2875E2;strokeColor=#ffffff;points=[[0.005,0.63,0],[0.1,0.2,0],[0.9,0.2,0],[0.5,0,0],[0.995,0.63,0],[0.72,0.99,0],[0.5,1,0],[0.28,0.99,0]];shape=mxgraph.kubernetes.icon2;prIcon=pod" vertex="1" parent="Y8M2NR25lFbjrLHhS5XQ-8">
          <mxGeometry x="140" y="10" width="33.33" height="32" as="geometry" />
        </mxCell>
        <mxCell id="Y8M2NR25lFbjrLHhS5XQ-10" value="" style="image;sketch=0;aspect=fixed;html=1;points=[];align=center;fontSize=12;image=img/lib/mscae/Docker.svg;" vertex="1" parent="1">
          <mxGeometry x="830" y="190" width="50" height="41" as="geometry" />
        </mxCell>
        <mxCell id="Y8M2NR25lFbjrLHhS5XQ-11" style="edgeStyle=orthogonalEdgeStyle;rounded=0;orthogonalLoop=1;jettySize=auto;html=1;entryX=0.938;entryY=0.465;entryDx=0;entryDy=0;entryPerimeter=0;" edge="1" parent="1" source="Y8M2NR25lFbjrLHhS5XQ-10" target="Y8M2NR25lFbjrLHhS5XQ-8">
          <mxGeometry relative="1" as="geometry" />
        </mxCell>
        <mxCell id="Y8M2NR25lFbjrLHhS5XQ-13" value="reversecontainer" style="text;html=1;align=center;verticalAlign=middle;resizable=0;points=[];autosize=1;strokeColor=none;fillColor=none;" vertex="1" parent="1">
          <mxGeometry x="425" y="118" width="110" height="30" as="geometry" />
        </mxCell>
        <mxCell id="Y8M2NR25lFbjrLHhS5XQ-14" value="&lt;div style=&quot;color: rgb(204, 204, 204); background-color: rgb(31, 31, 31); font-family: Consolas, &amp;quot;Courier New&amp;quot;, monospace; font-size: 14px; line-height: 19px; white-space-collapse: preserve;&quot;&gt;&lt;span style=&quot;color: #ce9178;&quot;&gt;rahulawari683/reverse-dockerhub-repo:latest&lt;/span&gt;&lt;/div&gt;" style="text;html=1;align=center;verticalAlign=middle;resizable=0;points=[];autosize=1;strokeColor=none;fillColor=none;" vertex="1" parent="1">
          <mxGeometry x="700" y="234.5" width="350" height="30" as="geometry" />
        </mxCell>
        <mxCell id="Y8M2NR25lFbjrLHhS5XQ-15" value="pull image" style="text;html=1;align=center;verticalAlign=middle;resizable=0;points=[];autosize=1;strokeColor=none;fillColor=none;" vertex="1" parent="1">
          <mxGeometry x="680" y="178" width="80" height="30" as="geometry" />
        </mxCell>
        <mxCell id="Y8M2NR25lFbjrLHhS5XQ-16" value="pull image" style="text;html=1;align=center;verticalAlign=middle;resizable=0;points=[];autosize=1;strokeColor=none;fillColor=none;" vertex="1" parent="1">
          <mxGeometry x="80" y="168" width="80" height="30" as="geometry" />
        </mxCell>
        <mxCell id="Y8M2NR25lFbjrLHhS5XQ-17" value="" style="shadow=0;dashed=0;html=1;labelPosition=center;verticalLabelPosition=bottom;verticalAlign=top;align=center;outlineConnect=0;shape=mxgraph.veeam.3d.datastore_volume;" vertex="1" parent="1">
          <mxGeometry x="380" y="360" width="54" height="34" as="geometry" />
        </mxCell>
        <mxCell id="Y8M2NR25lFbjrLHhS5XQ-18" value="PVC&amp;nbsp;&lt;div&gt;&lt;br&gt;&lt;/div&gt;" style="text;html=1;align=center;verticalAlign=middle;resizable=0;points=[];autosize=1;strokeColor=none;fillColor=none;" vertex="1" parent="1">
          <mxGeometry x="435" y="353" width="50" height="40" as="geometry" />
        </mxCell>
        <mxCell id="Y8M2NR25lFbjrLHhS5XQ-24" value="" style="endArrow=classic;html=1;rounded=0;" edge="1" parent="1">
          <mxGeometry width="50" height="50" relative="1" as="geometry">
            <mxPoint x="330" y="280" as="sourcePoint" />
            <mxPoint x="390" y="360" as="targetPoint" />
          </mxGeometry>
        </mxCell>
        <mxCell id="Y8M2NR25lFbjrLHhS5XQ-25" value="Write" style="text;html=1;align=center;verticalAlign=middle;resizable=0;points=[];autosize=1;strokeColor=none;fillColor=none;" vertex="1" parent="1">
          <mxGeometry x="310" y="318" width="50" height="30" as="geometry" />
        </mxCell>
        <mxCell id="Y8M2NR25lFbjrLHhS5XQ-26" value="" style="endArrow=classic;html=1;rounded=0;entryX=0.14;entryY=1.049;entryDx=0;entryDy=0;entryPerimeter=0;" edge="1" parent="1" target="Y8M2NR25lFbjrLHhS5XQ-8">
          <mxGeometry width="50" height="50" relative="1" as="geometry">
            <mxPoint x="425" y="360" as="sourcePoint" />
            <mxPoint x="475" y="310" as="targetPoint" />
          </mxGeometry>
        </mxCell>
        <mxCell id="Y8M2NR25lFbjrLHhS5XQ-27" value="Read" style="text;html=1;align=center;verticalAlign=middle;resizable=0;points=[];autosize=1;strokeColor=none;fillColor=none;" vertex="1" parent="1">
          <mxGeometry x="470" y="318" width="50" height="30" as="geometry" />
        </mxCell>
        <mxCell id="Y8M2NR25lFbjrLHhS5XQ-28" value="" style="strokeWidth=2;html=1;shape=mxgraph.flowchart.database;whiteSpace=wrap;" vertex="1" parent="1">
          <mxGeometry x="375" y="490" width="60" height="60" as="geometry" />
        </mxCell>
        <mxCell id="Y8M2NR25lFbjrLHhS5XQ-32" value="" style="endArrow=classic;html=1;rounded=0;exitX=0.5;exitY=0;exitDx=0;exitDy=0;exitPerimeter=0;" edge="1" parent="1" source="Y8M2NR25lFbjrLHhS5XQ-28" target="Y8M2NR25lFbjrLHhS5XQ-17">
          <mxGeometry width="50" height="50" relative="1" as="geometry">
            <mxPoint x="410" y="490" as="sourcePoint" />
            <mxPoint x="460" y="440" as="targetPoint" />
          </mxGeometry>
        </mxCell>
        <mxCell id="Y8M2NR25lFbjrLHhS5XQ-33" value="Persistent Volume 10Mi" style="text;html=1;align=center;verticalAlign=middle;resizable=0;points=[];autosize=1;strokeColor=none;fillColor=none;" vertex="1" parent="1">
          <mxGeometry x="436.09" y="505" width="150" height="30" as="geometry" />
        </mxCell>
        <mxCell id="Y8M2NR25lFbjrLHhS5XQ-35" value="" style="image;aspect=fixed;html=1;points=[];align=center;fontSize=12;image=img/lib/azure2/containers/Kubernetes_Services.svg;" vertex="1" parent="1">
          <mxGeometry x="246.67" y="-20" width="56.67" height="50" as="geometry" />
        </mxCell>
        <mxCell id="Y8M2NR25lFbjrLHhS5XQ-36" value="" style="image;aspect=fixed;html=1;points=[];align=center;fontSize=12;image=img/lib/azure2/compute/Kubernetes_Services.svg;" vertex="1" parent="1">
          <mxGeometry x="529.43" y="-20" width="56.66" height="50" as="geometry" />
        </mxCell>
        <mxCell id="Y8M2NR25lFbjrLHhS5XQ-37" value="PORT:80" style="text;html=1;align=center;verticalAlign=middle;resizable=0;points=[];autosize=1;strokeColor=none;fillColor=none;" vertex="1" parent="1">
          <mxGeometry x="215" y="158" width="70" height="30" as="geometry" />
        </mxCell>
        <mxCell id="Y8M2NR25lFbjrLHhS5XQ-38" value="PORT:80" style="text;html=1;align=center;verticalAlign=middle;resizable=0;points=[];autosize=1;strokeColor=none;fillColor=none;" vertex="1" parent="1">
          <mxGeometry x="475" y="158" width="70" height="30" as="geometry" />
        </mxCell>
        <mxCell id="Y8M2NR25lFbjrLHhS5XQ-44" value="" style="endArrow=classic;html=1;rounded=0;entryX=0.435;entryY=1.027;entryDx=0;entryDy=0;entryPerimeter=0;" edge="1" parent="1" target="Y8M2NR25lFbjrLHhS5XQ-35">
          <mxGeometry width="50" height="50" relative="1" as="geometry">
            <mxPoint x="270" y="150" as="sourcePoint" />
            <mxPoint x="320" y="100" as="targetPoint" />
          </mxGeometry>
        </mxCell>
        <mxCell id="Y8M2NR25lFbjrLHhS5XQ-45" value="" style="endArrow=classic;html=1;rounded=0;entryX=0.375;entryY=1.107;entryDx=0;entryDy=0;entryPerimeter=0;" edge="1" parent="1" target="Y8M2NR25lFbjrLHhS5XQ-36">
          <mxGeometry width="50" height="50" relative="1" as="geometry">
            <mxPoint x="551" y="148" as="sourcePoint" />
            <mxPoint x="600" y="98" as="targetPoint" />
          </mxGeometry>
        </mxCell>
        <mxCell id="Y8M2NR25lFbjrLHhS5XQ-46" value="Service" style="text;html=1;align=center;verticalAlign=middle;resizable=0;points=[];autosize=1;strokeColor=none;fillColor=none;" vertex="1" parent="1">
          <mxGeometry x="591.19" y="-10" width="60" height="30" as="geometry" />
        </mxCell>
        <mxCell id="Y8M2NR25lFbjrLHhS5XQ-47" value="Service" style="text;html=1;align=center;verticalAlign=middle;resizable=0;points=[];autosize=1;strokeColor=none;fillColor=none;" vertex="1" parent="1">
          <mxGeometry x="298.34" y="-10" width="60" height="30" as="geometry" />
        </mxCell>
        <mxCell id="Y8M2NR25lFbjrLHhS5XQ-48" value="PORT: 8080/TCP" style="text;html=1;align=center;verticalAlign=middle;resizable=0;points=[];autosize=1;strokeColor=none;fillColor=none;" vertex="1" parent="1">
          <mxGeometry x="265" y="38" width="120" height="30" as="geometry" />
        </mxCell>
        <mxCell id="Y8M2NR25lFbjrLHhS5XQ-49" value="PORT: 9000/TCP" style="text;html=1;align=center;verticalAlign=middle;resizable=0;points=[];autosize=1;strokeColor=none;fillColor=none;" vertex="1" parent="1">
          <mxGeometry x="560" y="30" width="120" height="30" as="geometry" />
        </mxCell>
        <mxCell id="Y8M2NR25lFbjrLHhS5XQ-50" value="" style="outlineConnect=0;dashed=0;verticalLabelPosition=bottom;verticalAlign=top;align=center;html=1;shape=mxgraph.aws3.http_protocol;fillColor=#5294CF;gradientColor=none;" vertex="1" parent="1">
          <mxGeometry x="242.34" y="-130" width="56" height="50" as="geometry" />
        </mxCell>
        <mxCell id="Y8M2NR25lFbjrLHhS5XQ-51" value="" style="outlineConnect=0;dashed=0;verticalLabelPosition=bottom;verticalAlign=top;align=center;html=1;shape=mxgraph.aws3.http_protocol;fillColor=#5294CF;gradientColor=none;" vertex="1" parent="1">
          <mxGeometry x="529.4300000000001" y="-128" width="47.62" height="48" as="geometry" />
        </mxCell>
        <mxCell id="Y8M2NR25lFbjrLHhS5XQ-52" value="" style="endArrow=classic;html=1;rounded=0;" edge="1" parent="1" target="Y8M2NR25lFbjrLHhS5XQ-50">
          <mxGeometry width="50" height="50" relative="1" as="geometry">
            <mxPoint x="270" y="-20" as="sourcePoint" />
            <mxPoint x="320" y="-70" as="targetPoint" />
          </mxGeometry>
        </mxCell>
        <mxCell id="Y8M2NR25lFbjrLHhS5XQ-53" value="" style="endArrow=classic;html=1;rounded=0;entryX=0.5;entryY=1;entryDx=0;entryDy=0;entryPerimeter=0;" edge="1" parent="1">
          <mxGeometry width="50" height="50" relative="1" as="geometry">
            <mxPoint x="556.14" y="-20" as="sourcePoint" />
            <mxPoint x="559.38" y="-80" as="targetPoint" />
          </mxGeometry>
        </mxCell>
        <mxCell id="Y8M2NR25lFbjrLHhS5XQ-54" value="&amp;lt;service IP&amp;gt;/api/HttpTriggerReader?json=[&amp;lt;Enter json list &amp;gt;]" style="text;html=1;align=center;verticalAlign=middle;resizable=0;points=[];autosize=1;strokeColor=none;fillColor=none;" vertex="1" parent="1">
          <mxGeometry x="60" y="-152" width="340" height="30" as="geometry" />
        </mxCell>
        <mxCell id="Y8M2NR25lFbjrLHhS5XQ-55" value="&amp;lt;service IP&amp;gt;/api/HttpTriggerReverse" style="text;html=1;align=center;verticalAlign=middle;resizable=0;points=[];autosize=1;strokeColor=none;fillColor=none;" vertex="1" parent="1">
          <mxGeometry x="451.19" y="-158" width="220" height="30" as="geometry" />
        </mxCell>
        <mxCell id="Y8M2NR25lFbjrLHhS5XQ-56" value="/shared/output.json&lt;div&gt;&lt;br&gt;&lt;/div&gt;" style="text;html=1;align=center;verticalAlign=middle;resizable=0;points=[];autosize=1;strokeColor=none;fillColor=none;" vertex="1" parent="1">
          <mxGeometry x="250" y="370" width="130" height="40" as="geometry" />
        </mxCell>
      </root>
    </mxGraphModel>
  </diagram>
</mxfile>
